<svg width="40" height="40" viewBox="0 0 40 40" fill="none" xmlns="http://www.w3.org/2000/svg">
<rect width="40" height="40" rx="20" fill="#29CB97"/>
<path fill-rule="evenodd" clip-rule="evenodd" d="M25.133 19H21.0614V14.845C21.0614 14.29 20.6225 13.845 20.0818 13.845C19.541 13.845 19.1022 14.29 19.1022 14.845V19H15.0305C14.4893 19 14.0509 19.45 14.0509 20C14.0509 20.555 14.4893 21 15.0305 21H19.1022V25.155C19.1022 25.71 19.541 26.155 20.0818 26.155C20.6225 26.155 21.0614 25.71 21.0614 25.155V21H25.133C25.6743 21 26.1126 20.555 26.1126 20C26.1126 19.45 25.6743 19 25.133 19Z" fill="white"/>
</svg>
